<?xml version="1.0" encoding="utf-8"?>
<!-- Generator: Adobe Illustrator 19.2.1, SVG Export Plug-In . SVG Version: 6.00 Build 0)  -->
<svg version="1.1" id="layer" xmlns="http://www.w3.org/2000/svg" xmlns:xlink="http://www.w3.org/1999/xlink" x="0px" y="0px"
	 viewBox="0 0 652 652" style="enable-background:new 0 0 652 652;" xml:space="preserve">
<style type="text/css">
	.st0{fill-rule:evenodd;clip-rule:evenodd;}
</style>
<g>
	<path class="st0" d="M78.8,280c10.6,3.9,22.8,13,25.7,24.7H81c-6.5-6.5-16.9-8.6-25.3-4.9c-8.3,3.2-14.2,11.9-14.3,20.8
		c-0.3,9.1,5.3,17.3,13.4,21.3c7.5,4,18.3,2.6,24.8-2.8c2.8-2.5,4.7-5.5,6.3-8.6l-26.1-0.2v-17.1h47.9c1.2,12.9-0.9,24.7-8.4,34.2
		c-10.4,13.2-25.6,19.3-42.4,16.5c-15.5-2.2-30.6-16.4-34.3-31.6c-2.8-11.4-1.1-24.3,4.7-33.7c7.7-12.4,20.3-20.1,34.3-21.1
		C67.7,277.5,73.4,278.2,78.8,280"/>
	<path class="st0" d="M224.6,278.7c12.6,2.9,26.6,12.9,30.3,26.2h-23.5c-6.3-6.4-15.9-8.6-24.4-5.4c-7.9,2.6-14.6,10.8-15.1,19.2
		c-0.9,8.7,2.8,16.2,9.8,21.4c7,5.4,18.7,5.5,26.1,0.6c3.9-2.3,6.5-6.3,8.3-10l-25.9-0.2v-17.1h44.1c2.5-15.7,16.7-31.3,32.4-34.5
		c10.2-2.3,21.7-0.8,30.5,3.7c8.4,4.5,17.7,12.8,19.9,22.3h-23.5c-6.3-6.4-15.9-8.6-24.4-5.4c-7.9,2.6-14.6,10.8-15.1,19.2
		c-0.9,8.7,2.8,16.2,9.8,21.4c6.7,5.1,17.8,5.6,24.9,1.4c4.3-2.2,7.6-6.7,9.5-10.7l-25.9-0.2v-17.1h47.8c1,11.9-0.5,23.3-7.1,32.3
		c-10.6,15.2-28.3,22.1-46.4,17.8c-13.4-2.7-26.5-15.1-30.6-28.1c-4.2,13.4-17.7,25.6-31.5,28.4c-18.7,4-36.4-3.8-46.6-19.7
		c-8.7-12.6-8.6-32.9-0.1-45.7C188,282.2,205.9,274.7,224.6,278.7"/>
	<polygon class="st0" points="395,300.1 365.1,300.1 365.1,312.7 392.4,312.9 392.4,330.3 365.1,330.3 365.1,342.6 395,342.7 
		395,363.2 343.2,363.2 343.2,280.1 395,280.1 	"/>
	<path class="st0" d="M565.6,327.3c0.4,6.5,4.5,13.1,10.8,15.3c5.4,2.5,12.2,1,16.8-2.3c8.9-6.8,6.1-18.9,6.7-29.1v-31.2h20.9
		l0.4,44c-0.3,14.6-5.9,28.8-19.4,36.1c-4.7,2.7-9.8,4.4-15.4,4.9c-4,0.2-8.2,0.2-11.9-0.7c-12.2-2.4-25.2-12.7-28-25.3
		c-1.3-5.8-1.9-11.9-2-18.1l-0.1-40.8h21.1L565.6,327.3z"/>
</g>
<g>
	<path class="st0" d="M139.5,278.6l-45.4,84.7h25.6l5.9-12.8h27.5c2.1,4.1,4.1,8.4,5.9,12.7h25.5L139.5,278.6z M132,336.7l8-16.7
		l7.3,16.7H132z"/>
	<path class="st0" d="M510,278.6l-37.1,69.3v-0.1l-0.1-67.7h-22.2l-0.1,39.5l-51.7-38.8v82.3h21.7l0.1-37.6l0.2,0.2l49.7,37.4
		l19.9-0.1l5.8-12.7H524l5.8,12.8h25.4V363L510,278.6z M502.5,336.7l8.1-16.7l7.3,16.6L502.5,336.7z"/>
</g>
</svg>
