<svg xmlns="http://www.w3.org/2000/svg" width="2500" height="1877" viewBox="19 15 859 645">
  <defs/>
  <path fill="#f70000" stroke="#000" stroke-width="18" d="M448 646L31 160 172 24h552l141 136-417 486z"/>
  <g fill="#fff800" stroke="#000" stroke-width="16">
    <path stroke-miterlimit="4.7" d="M207 298l72 85c39-36 131-28 160 22 79 1 147 5 173-27 7-11 10-22 0-30-47-32-216-15-405-50zM93 164l99-97h49c-50 40-84 94-100 154l-48-57zm256 298l99 115 95-110c-48 11-102 16-194-5z"/>
    <path stroke-miterlimit="9.6" d="M594 67h42c1 16-7 25-11 30-10-13-26-26-31-30z"/>
    <path d="M709 276l94-112-68-67v75H595c-4-73-78-104-164-103-79 0-145 20-151 65-7 24 21 66 187 58 132-3 213 26 242 84z"/>
  </g>
</svg>
