<svg height="512" viewBox="0 0 60 60" width="512" xmlns="http://www.w3.org/2000/svg"><g id="Page-1" fill="none" fill-rule="evenodd"><g id="033---Aim-Bot" fill-rule="nonzero"><g id="Icons" transform="translate(1 1)"><circle id="Oval" cx="29" cy="29" fill="#a4c2f7" r="22"/><path id="Shape" d="m29 7c-.5 0-1 .023-1.5.057 11.5391351.78718633 20.4970742 10.3770456 20.4970742 21.943s-8.9579391 21.1558137-20.4970742 21.943c.5.034 1 .057 1.5.057 12.1502645 0 22-9.8497355 22-22s-9.8497355-22-22-22z" fill="#7facfa"/><path id="Shape" d="m27 7.09c-10.568772.96873772-18.94126228 9.341228-19.91 19.91h-4.01c.98199348-12.7818317 11.1381683-22.93800652 23.92-23.92z" fill="#e8edfc"/><path id="Shape" d="m54.92 31c-.9819935 12.7818317-11.1381683 22.9380065-23.92 23.92v-4.01c10.5758491-.953628 18.956372-9.3341509 19.91-19.91z" fill="#e8edfc"/><path id="Shape" d="m51.92 31c-.8996594 11.6434107-9.4584719 21.2553009-20.92 23.494v.426c12.7818317-.9819935 22.9380065-11.1381683 23.92-23.92z" fill="#cad9fc"/><path id="Shape" d="m27 50.91v4.01c-12.7818317-.9819935-22.93800652-11.1381683-23.92-23.92h4.01c.95362797 10.5758491 9.3341509 18.956372 19.91 19.91z" fill="#e8edfc"/><path id="Shape" d="m50.91 27c-.9687377-10.568772-9.341228-18.94126228-19.91-19.91v-4.01c12.7818317.98199348 22.9380065 11.1381683 23.92 23.92z" fill="#e8edfc"/><path id="Shape" d="m31 3.08v.426c11.4615281 2.23869913 20.0203406 11.8505893 20.92 23.494h3c-.9819935-12.7818317-11.1381683-22.93800652-23.92-23.92z" fill="#cad9fc"/><rect id="Rectangle-path" fill="#e8edfc" height="10" rx="2" width="4" x="27"/><path id="Shape" d="m31 50v6c0 1.1045695-.8954305 2-2 2s-2-.8954305-2-2v-6c.0032948-1.1032019.8967981-1.9967052 2-2 1.1011688.0081672 1.9918328.8988312 2 2z" fill="#e8edfc"/><rect id="Rectangle-path" fill="#e8edfc" height="10" rx="2" transform="matrix(0 1 -1 0 82 -24)" width="4" x="51" y="24"/><path id="Shape" d="m56 27h-3c1.1045695 0 2 .8954305 2 2s-.8954305 2-2 2h3c1.1045695 0 2-.8954305 2-2s-.8954305-2-2-2z" fill="#cad9fc"/><rect id="Rectangle-path" fill="#e8edfc" height="10" rx="2" transform="matrix(0 1 -1 0 34 24)" width="4" x="3" y="24"/><rect id="Rectangle-path" fill="#e8edfc" height="20" rx="2" width="26" x="16" y="18"/><path id="Shape" d="m40 18h-3c1.1045695 0 2 .8954305 2 2v16c0 1.1045695-.8954305 2-2 2h3c1.1045695 0 2-.8954305 2-2v-16c0-1.1045695-.8954305-2-2-2z" fill="#cad9fc"/><g fill="#a4c2f7"><path id="Shape" d="m27 14h4c.5522847 0 1 .4477153 1 1v3h-6v-3c0-.5522847.4477153-1 1-1z"/><rect id="Rectangle-path" height="4" rx="1" width="14" x="22" y="30"/><circle id="Oval" cx="24" cy="24" r="2"/><circle id="Oval" cx="34" cy="24" r="2"/><path id="Rectangle-path" d="m26 38h6v4h-6z"/></g><path id="Shape" d="m41 46v1.45c-3.0005425 1.9531083-6.4340239 3.1410928-10 3.46v-.91c-.0081672-1.1011688-.8988312-1.9918328-2-2-1.1032019.0032948-1.9967052.8967981-2 2v.91c-3.5659761-.3189072-6.9994575-1.5068917-10-3.46v-1.45c0-2.209139 1.790861-4 4-4h16c2.209139 0 4 1.790861 4 4z" fill="#e8edfc"/><path id="Shape" d="m37 42h-3c2.209139 0 4 1.790861 4 4v1.45c-2.1420602 1.3914939-4.511137 2.3973363-7 2.972v.488c3.5659761-.3189072 6.9994575-1.5068917 10-3.46v-1.45c0-2.209139-1.790861-4-4-4z" fill="#cad9fc"/><circle id="Oval" cx="22" cy="46" fill="#e8edfc" r="1"/><circle id="Oval" cx="25" cy="46" fill="#e8edfc" r="1"/><circle id="Oval" cx="33" cy="46" fill="#e8edfc" r="1"/><circle id="Oval" cx="36" cy="46" fill="#e8edfc" r="1"/></g><g id="Icons_copy_2" fill="#fff" transform="translate(1)"><path id="Shape" d="m2 32h1.08c.98199348 12.7818317 11.1381683 22.9380065 23.92 23.92v1.08c-.0034236.8339273.5132268 1.5816298 1.2944668 1.8733671.7812399.2917373 1.6615172.0656876 2.2055332-.5663671-.3199584-.3604295-.4977008-.8250482-.5-1.307v-1.08c-12.7818317-.9819935-22.93800652-11.1381683-23.92-23.92h-1.08c-1.1045695 0-2-.8954305-2-2s.8954305-2 2-2h1.08c.98199348-12.7818317 11.1381683-22.93800652 23.92-23.92v-1.08c.0015701-.48298646.17936-.94879595.5-1.31-.5448575-.63130578-1.425284-.85640732-2.2062875-.56408884-.7810036.29231848-1.2972639 1.04017993-1.2937125 1.87408884v1.08c-12.7818317.98199348-22.93800652 11.1381683-23.92 23.92h-1.08c-1.10456947 0-1.99999992.8954305-1.99999992 2s.89543045 2 1.99999992 2z"/></g><g id="Icons_copy"><path id="Shape" d="m7.821 14.612 1.643 1.141c-1.4703851 2.1073726-2.60519331 4.4299513-3.364 6.885l-1.912-.587c.81937827-2.6524781 2.04492539-5.1619317 3.633-7.439z" fill="#fff"/><g fill="#428dff"><path id="Shape" d="m6.211 19.541c.49705627.2413484 1.09565155.0340563 1.33699999-.463.24134843-.4970563.03405628-1.0956516-.46299999-1.337-.32153903-.1561251-.70194508-.1288515-.99792287.0715469s-.46256125.5434765-.43700001.9c.02556125.3565235.23938384.672328.56092288.8284531z"/><path id="Shape" d="m57 27h-.2c-1.4586451-12.4904635-11.3095365-22.34135486-23.8-23.8v-.2c0-1.65685425-1.3431458-3-3-3s-3 1.34314575-3 3v.189c-1.6761669.18886795-3.332092.52721481-4.948 1.011-3.8300235 1.18122798-7.3486484 3.20119197-10.3 5.913-1.4656493 1.3566068-2.78304089 2.8650704-3.93 4.5-.15580993.2215608-.21424652.4971977-.16174379.762922.05250274.2657243.21137825.4984239.43974379.644078.45459895.289891 1.05665064.1724711 1.369-.267 2.1165176-3.0474848 4.8830406-5.5872212 8.1-7.436 1.6071447-.91343399 3.3070821-1.65294534 5.071-2.206 1.4245282-.42810215 2.8832368-.73289196 4.36-.911v2.017c-10.3203585 1.33938339-18.44361661 9.4626415-19.783 19.783h-2.028c.17269065-1.4783046.47757789-2.9381489.911-4.362.16209557-.5279842-.13451578-1.0874044-.6625-1.2495s-1.08740443.1345158-1.2495.6625c-.49044939 1.6144603-.82826459 3.2713953-1.009 4.949h-.179c-1.65685425 0-3 1.3431458-3 3s1.34314575 3 3 3h.2c1.45864514 12.4904635 11.3095365 22.3413549 23.8 23.8v.2c0 1.6568542 1.3431458 3 3 3s3-1.3431458 3-3v-.2c12.4904635-1.4586451 22.3413549-11.3095365 23.8-23.8h.2c1.6568542 0 3-1.3431458 3-3s-1.3431458-3-3-3zm-2.209 0h-2.008c-1.3393834-10.3203585-9.4626415-18.44361661-19.783-19.783v-2.008c11.3895081 1.43127744 20.3597226 10.4014919 21.791 21.791zm-25.791-24c0-.55228475.4477153-1 1-1s1 .44771525 1 1v6c0 .55228475-.4477153 1-1 1s-1-.44771525-1-1zm-1.977 6.23c.1144165 1.5596474 1.4131614 2.7666059 2.977 2.7666059s2.8625835-1.2069585 2.977-2.7666059c9.2323382 1.3053121 16.4876879 8.5606618 17.793 17.793-1.5596474.1144165-2.7666059 1.4131614-2.7666059 2.977s1.2069585 2.8625835 2.7666059 2.977c-.7556386 5.3571893-3.5578123 10.2131435-7.818 13.548-.2394306-2.5583406-2.3824936-4.516612-4.952-4.525h-4v-2h7c1.6568542 0 3-1.3431458 3-3v-16c0-1.6568542-1.3431458-3-3-3h-7v-2c0-1.1045695-.8954305-2-2-2h-4c-1.1045695 0-2 .8954305-2 2v2h-7c-1.6568542 0-3 1.3431458-3 3v16c0 1.6568542 1.3431458 3 3 3h7v2h-4c-2.5695064.008388-4.7125694 1.9666594-4.952 4.525-4.2601877-3.3348565-7.0623614-8.1908107-7.818-13.548 1.5596474-.1144165 2.7666059-1.4131614 2.7666059-2.977s-1.2069585-2.8625835-2.7666059-2.977c1.3053121-9.2323382 8.5606618-16.4876879 17.793-17.793zm5.954 41.54c-.1144165-1.5596474-1.4131614-2.7666059-2.977-2.7666059s-2.8625835 1.2069585-2.977 2.7666059c-2.8439352-.3992524-5.5750741-1.3803246-8.023-2.882v-.888c0-1.6568542 1.3431458-3 3-3h16c1.6568542 0 3 1.3431458 3 3v.888c-2.4479259 1.5016754-5.1790648 2.4827476-8.023 2.882zm-.977-32.77h-4v-2h4zm-5 2h14c.5522847 0 1 .4477153 1 1v16c0 .5522847-.4477153 1-1 1h-22c-.5522847 0-1-.4477153-1-1v-16c0-.5522847.4477153-1 1-1zm1 20h4v2h-4zm-26-10c0-.5522847.44771525-1 1-1h6c.55228475 0 1 .4477153 1 1s-.44771525 1-1 1h-6c-.55228475 0-1-.4477153-1-1zm3.209 3h2.008c1.33938339 10.3203585 9.4626415 18.4436166 19.783 19.783v2.008c-11.3895081-1.4312774-20.35972256-10.4014919-21.791-21.791zm25.791 24c0 .5522847-.4477153 1-1 1s-1-.4477153-1-1v-6c0-.5522847.4477153-1 1-1s1 .4477153 1 1zm2-2.209v-2.008c10.3203585-1.3393834 18.4436166-9.4626415 19.783-19.783h2.008c-1.4312774 11.3895081-10.4014919 20.3597226-21.791 21.791zm24-23.791h-6c-.5522847 0-1-.4477153-1-1s.4477153-1 1-1h6c.5522847 0 1 .4477153 1 1s-.4477153 1-1 1z"/><path id="Shape" d="m24 36h12c1.1045695 0 2-.8954305 2-2v-2c0-1.1045695-.8954305-2-2-2h-12c-1.1045695 0-2 .8954305-2 2v2c0 1.1045695.8954305 2 2 2zm0-4h12v2h-12z"/><path id="Shape" d="m25 28c1.6568542 0 3-1.3431458 3-3s-1.3431458-3-3-3-3 1.3431458-3 3 1.3431458 3 3 3zm0-4c.5522847 0 1 .4477153 1 1s-.4477153 1-1 1-1-.4477153-1-1 .4477153-1 1-1z"/><path id="Shape" d="m35 28c1.6568542 0 3-1.3431458 3-3s-1.3431458-3-3-3-3 1.3431458-3 3 1.3431458 3 3 3zm0-4c.5522847 0 1 .4477153 1 1s-.4477153 1-1 1-1-.4477153-1-1 .4477153-1 1-1z"/><circle id="Oval" cx="23" cy="47" r="1"/><circle id="Oval" cx="26" cy="47" r="1"/><circle id="Oval" cx="34" cy="47" r="1"/><circle id="Oval" cx="37" cy="47" r="1"/></g></g></g></g></svg>