<?xml version="1.0" encoding="UTF-8" standalone="no"?>
<!-- Generator: Adobe Illustrator 16.0.0, SVG Export Plug-In . SVG Version: 6.00 Build 0)  -->

<svg
   xmlns:dc="http://purl.org/dc/elements/1.1/"
   xmlns:cc="http://creativecommons.org/ns#"
   xmlns:rdf="http://www.w3.org/1999/02/22-rdf-syntax-ns#"
   xmlns:svg="http://www.w3.org/2000/svg"
   xmlns="http://www.w3.org/2000/svg"
   xmlns:sodipodi="http://sodipodi.sourceforge.net/DTD/sodipodi-0.dtd"
   xmlns:inkscape="http://www.inkscape.org/namespaces/inkscape"
   version="1.1"
   id="Capa_1"
   x="0px"
   y="0px"
   width="128"
   height="128"
   viewBox="0 0 128 128"
   xml:space="preserve"
   sodipodi:docname="Robot_TypeIcon.svg"
   inkscape:version="0.92.3 (2405546, 2018-03-11)"><metadata
     id="metadata71"><rdf:RDF><cc:Work
         rdf:about=""><dc:format>image/svg+xml</dc:format><dc:type
           rdf:resource="http://purl.org/dc/dcmitype/StillImage" /><dc:title></dc:title></cc:Work></rdf:RDF></metadata><defs
     id="defs69" /><sodipodi:namedview
     pagecolor="#ffffff"
     bordercolor="#666666"
     borderopacity="1"
     objecttolerance="10"
     gridtolerance="10"
     guidetolerance="10"
     inkscape:pageopacity="0"
     inkscape:pageshadow="2"
     inkscape:window-width="1920"
     inkscape:window-height="1017"
     id="namedview67"
     showgrid="false"
     inkscape:zoom="5.2149125"
     inkscape:cx="76.272219"
     inkscape:cy="54.730932"
     inkscape:window-x="-8"
     inkscape:window-y="-8"
     inkscape:window-maximized="1"
     inkscape:current-layer="g32" /><g
     id="g34"
     transform="translate(0,96)"><g
       id="g32"><g
         id="g893"
         transform="matrix(3.1249023,0,0,3.1249023,13.998438,-81.999999)"><path
           style="fill:#3c3c3c;fill-opacity:1"
           id="path2"
           d="m 13.961,29.827 v -2.62 l -0.188,-0.169 c -0.226,0.146 -0.491,0.235 -0.777,0.252 -0.03,0.001 -0.059,0.002 -0.089,0.002 -0.303,0 -0.586,-0.086 -0.829,-0.231 v 2.643 c -0.954,0.329 -1.64,1.232 -1.64,2.297 2.474,0 1.231,0 4.866,0 0,-0.952 -0.547,-1.774 -1.343,-2.174 z"
           inkscape:connector-curvature="0" /><circle
           style="fill:#3c3c3c;fill-opacity:1"
           id="circle4"
           r="0.57700002"
           cy="6.29"
           cx="13.921" /><path
           style="fill:#3c3c3c;fill-opacity:1"
           id="path6"
           d="m 14.147,25.617 c -0.038,-0.686 -0.624,-1.21 -1.309,-1.172 -0.249,0.014 -0.476,0.1 -0.665,0.238 l 1.809,1.621 c 0.117,-0.202 0.178,-0.438 0.165,-0.687 z"
           inkscape:connector-curvature="0" /><path
           style="fill:#3c3c3c;fill-opacity:1"
           id="path8"
           d="m 11.667,25.752 c 0.037,0.686 0.623,1.21 1.308,1.173 0.207,-0.011 0.398,-0.073 0.565,-0.172 l -1.764,-1.58 c -0.08,0.177 -0.121,0.373 -0.109,0.579 z"
           inkscape:connector-curvature="0" /><path
           style="fill:#3c3c3c;fill-opacity:1"
           id="path10"
           d="m 19.922,29.701 v -2.643 c -0.242,0.146 -0.527,0.231 -0.83,0.231 -0.028,0 -0.06,-0.001 -0.088,-0.002 -0.287,-0.015 -0.552,-0.106 -0.777,-0.251 l -0.188,0.169 v 2.62 c -0.796,0.4 -1.344,1.222 -1.344,2.173 3.635,0 2.393,0 4.865,0 -10e-4,-1.064 -0.685,-1.968 -1.638,-2.297 z"
           inkscape:connector-curvature="0" /><circle
           style="fill:#3c3c3c;fill-opacity:1"
           id="circle12"
           r="0.57700002"
           cy="6.2880001"
           cx="18.077" /><path
           style="fill:#3c3c3c;fill-opacity:1"
           id="path14"
           d="m 17.852,25.615 c -0.014,0.25 0.047,0.484 0.164,0.687 l 1.81,-1.62 c -0.188,-0.138 -0.416,-0.225 -0.665,-0.238 -0.686,-0.04 -1.272,0.486 -1.309,1.171 z"
           inkscape:connector-curvature="0" /><path
           style="fill:#3c3c3c;fill-opacity:1"
           id="path16"
           d="m 20.332,25.751 c 0.012,-0.207 -0.029,-0.403 -0.109,-0.58 l -1.764,1.58 c 0.166,0.099 0.358,0.161 0.564,0.172 0.685,0.038 1.272,-0.487 1.309,-1.172 z"
           inkscape:connector-curvature="0" /><path
           style="fill:#3c3c3c;fill-opacity:1"
           id="path18"
           d="M 8.818,17.059 C 8.781,16.379 8.2,15.859 7.521,15.896 7.274,15.91 7.049,15.996 6.863,16.132 l 1.793,1.607 c 0.115,-0.2 0.176,-0.434 0.162,-0.68 z"
           inkscape:connector-curvature="0" /><path
           style="fill:#3c3c3c;fill-opacity:1"
           id="path20"
           d="M 7.656,18.355 C 7.86,18.343 8.05,18.282 8.215,18.185 L 6.467,16.618 c -0.08,0.174 -0.12,0.37 -0.109,0.575 0.038,0.679 0.619,1.2 1.298,1.162 z"
           inkscape:connector-curvature="0" /><path
           style="fill:#3c3c3c;fill-opacity:1"
           id="path22"
           d="m 23.18,17.059 c -0.014,0.246 0.047,0.48 0.162,0.681 l 1.795,-1.606 c -0.188,-0.136 -0.414,-0.223 -0.66,-0.236 -0.678,-0.039 -1.26,0.481 -1.297,1.161 z"
           inkscape:connector-curvature="0" /><path
           style="fill:#3c3c3c;fill-opacity:1"
           id="path24"
           d="m 24.342,18.355 c 0.68,0.037 1.26,-0.483 1.297,-1.162 0.012,-0.205 -0.028,-0.401 -0.107,-0.575 l -1.749,1.567 c 0.165,0.097 0.354,0.159 0.559,0.17 z"
           inkscape:connector-curvature="0" /><path
           style="fill:#3c3c3c;fill-opacity:1"
           id="path26"
           d="m 24.498,15.521 c 0.231,0.013 0.451,0.075 0.651,0.178 -0.545,-1.917 -2.103,-3.517 -3.375,-3.622 L 18.449,12.071 V 10.8 h 1.618 c 0,0 1.677,-7.21 0,-7.21 -0.36,0 -0.97,0 -1.704,0 -0.234,-0.319 -0.934,-0.569 -1.816,-0.649 0.177,-0.5 0.653,-1.583 1.556,-1.957 0.088,0.341 0.395,0.595 0.763,0.595 0.437,0 0.79,-0.354 0.79,-0.79 C 19.656,0.354 19.303,0 18.867,0 c -0.322,0 -0.598,0.193 -0.72,0.469 -1.331,0.379 -1.924,1.928 -2.088,2.447 -0.021,0 -0.041,-10e-4 -0.062,-10e-4 v 10e-4 c -0.019,0 -0.038,10e-4 -0.058,10e-4 C 15.776,2.399 15.182,0.85 13.851,0.47 13.728,0.195 13.453,0.002 13.131,0.002 c -0.437,0 -0.79,0.354 -0.79,0.79 0,0.436 0.353,0.79 0.79,0.79 0.368,0 0.675,-0.253 0.762,-0.594 0.903,0.374 1.379,1.457 1.556,1.956 -0.884,0.08 -1.583,0.33 -1.817,0.648 -0.733,0 -1.342,0 -1.703,0 -1.678,0 0,7.21 0,7.21 h 1.619 v 1.271 l -3.326,0.004 c -1.271,0.105 -2.829,1.706 -3.374,3.622 0.2,-0.103 0.42,-0.166 0.651,-0.178 0.477,-0.026 0.913,0.16 1.224,0.472 0.389,-1.11 1.258,-1.939 1.622,-2.035 l 0.514,7.86 h 1.216 v 2.49 c 0.223,-0.135 0.475,-0.214 0.742,-0.228 0.436,-0.024 0.838,0.128 1.142,0.394 v -2.656 h 2.04 v -0.002 h 2.037 v 2.656 c 0.304,-0.265 0.706,-0.418 1.142,-0.394 0.267,0.014 0.52,0.093 0.742,0.228 v -2.49 h 1.215 l 0.515,-7.857 c 0.364,0.096 1.233,0.925 1.622,2.035 0.314,-0.313 0.749,-0.499 1.226,-0.473 z M 15.997,8.593 h 1.502 V 9.534 H 16 V 9.536 H 14.498 V 8.595 h 1.499 z m 3.355,-2.305 c 0,0.704 -0.57,1.275 -1.274,1.275 -0.703,0 -1.274,-0.571 -1.274,-1.275 0,-0.704 0.571,-1.275 1.274,-1.275 0.703,0 1.274,0.571 1.274,1.275 z M 12.646,6.29 c 0,-0.704 0.571,-1.275 1.274,-1.275 0.705,0 1.275,0.572 1.275,1.275 0,0.704 -0.571,1.275 -1.275,1.275 -0.703,0 -1.274,-0.571 -1.274,-1.275 z m 7.514,13.915 h -7.818 v -0.402 h 7.818 z m 0,-1.119 h -7.818 v -0.402 h 7.818 z m 0,-1.104 h -7.818 v -0.401 h 7.818 z m 0,-1.118 h -7.818 v -0.402 h 7.818 z m 0,-1.118 h -7.818 v -0.402 h 7.818 z m 0,-1.059 h -7.818 v -0.402 h 7.818 z"
           inkscape:connector-curvature="0" /><path
           style="fill:#3c3c3c;fill-opacity:1"
           id="path28"
           d="m 9.502,22.318 c 0,-0.471 -0.381,-0.854 -0.853,-0.854 H 8.531 V 18.546 L 8.454,18.478 c -0.226,0.146 -0.49,0.236 -0.777,0.252 -0.03,0.002 -0.059,0.002 -0.089,0.002 -0.351,0 -0.675,-0.113 -0.941,-0.307 v 3.038 H 6.511 c -0.472,-0.002 -0.854,0.38 -0.855,0.853 0,0.029 0.006,0.059 0.009,0.088 -0.003,0.029 -0.009,0.058 -0.009,0.088 v 1.04 c 0,0.379 0.306,0.687 0.686,0.687 0.379,10e-4 0.687,-0.307 0.687,-0.686 V 23.17 l 1.119,10e-4 v 0.363 c 0,0.379 0.307,0.687 0.686,0.687 0.38,0 0.688,-0.307 0.688,-0.687 l 10e-4,-1.04 c 0,-0.057 -0.008,-0.109 -0.021,-0.162 -0.001,-0.003 0,-0.008 0,-0.014 z"
           inkscape:connector-curvature="0" /><path
           style="fill:#3c3c3c;fill-opacity:1"
           id="path30"
           d="m 26.342,22.492 c 0.002,-0.03 -0.004,-0.059 -0.009,-0.088 0.003,-0.029 0.009,-0.059 0.009,-0.088 0,-0.473 -0.381,-0.854 -0.854,-0.854 h -0.137 v -3.038 c -0.264,0.193 -0.59,0.308 -0.939,0.308 -0.029,0 -0.061,0 -0.089,-0.002 -0.287,-0.017 -0.551,-0.107 -0.776,-0.252 l -0.076,0.067 v 2.918 H 23.35 c -0.471,0 -0.853,0.384 -0.853,0.854 0,0.005 0,0.01 0.001,0.015 -0.012,0.053 -0.021,0.106 -0.021,0.162 l 0.002,1.04 c 0,0.379 0.308,0.688 0.687,0.688 0.38,0 0.687,-0.309 0.687,-0.688 v -0.363 l 1.119,-10e-4 v 0.363 c 0,0.379 0.308,0.687 0.687,0.686 0.379,0 0.687,-0.308 0.687,-0.687 z"
           inkscape:connector-curvature="0" /></g></g></g><g
     id="g36"
     transform="translate(0,96)" /><g
     id="g38"
     transform="translate(0,96)" /><g
     id="g40"
     transform="translate(0,96)" /><g
     id="g42"
     transform="translate(0,96)" /><g
     id="g44"
     transform="translate(0,96)" /><g
     id="g46"
     transform="translate(0,96)" /><g
     id="g48"
     transform="translate(0,96)" /><g
     id="g50"
     transform="translate(0,96)" /><g
     id="g52"
     transform="translate(0,96)" /><g
     id="g54"
     transform="translate(0,96)" /><g
     id="g56"
     transform="translate(0,96)" /><g
     id="g58"
     transform="translate(0,96)" /><g
     id="g60"
     transform="translate(0,96)" /><g
     id="g62"
     transform="translate(0,96)" /><g
     id="g64"
     transform="translate(0,96)" /></svg>